IKResults
version=1
nRows=26
nColumns=24
inDegrees=yes

Units are S.I. units (second, meters, Newtons, ...)
Angles are in degrees.

endheader
time	pelvis_tilt	pelvis_list	pelvis_rotation	pelvis_tx	pelvis_ty	pelvis_tz	hip_flexion_r	hip_adduction_r	hip_rotation_r	knee_angle_r	ankle_angle_r	subtalar_angle_r	mtp_angle_r	hip_flexion_l	hip_adduction_l	hip_rotation_l	knee_angle_l	ankle_angle_l	subtalar_angle_l	mtp_angle_l	lumbar_extension	lumbar_bending	lumbar_rotation
      2.50000000	      4.04205310	     -3.23536494	     -3.27291145	      0.93237362	      1.03499199	      1.57374358	    -18.91746184	      5.13778805	     -7.57706991	     -1.84783489	     15.52987219	     25.23081479	    -47.46560166	     20.25948681	     -5.76319444	     -1.45912693	     -3.87512921	     -2.02831745	      9.49991709	    -57.31229388	    -16.44318642	      1.01953648	      9.78529313
      2.51000000	      4.14628393	     -3.37452170	     -3.41503942	      0.93306850	      1.03152250	      1.57376285	    -19.90936547	      5.12410453	     -6.81582740	     -2.40188490	     16.43042916	     24.67956942	    -47.59094509	     20.47217896	     -5.77788542	     -2.46275054	     -3.42815336	     -1.85520670	     10.88614712	    -57.44177043	    -16.44175262	      1.07127328	      9.86624374
      2.52000000	      4.23529207	     -3.39397796	     -3.49869790	      0.93386917	      1.02824021	      1.57361907	    -20.83181189	      5.00266467	     -5.89271087	     -3.04506992	     17.26942412	     23.69818338	    -48.04512536	     20.60159467	     -5.60092677	     -2.78479486	     -3.30697378	     -1.89190829	     11.37427217	    -57.37570252	    -16.39791641	      1.01251470	      9.83710018
      2.53000000	      4.26126681	     -3.31493726	     -3.56844074	      0.93476866	      1.02516464	      1.57336022	    -21.59005108	      4.77572269	     -4.94663105	     -3.84772847	     17.99850729	     22.70481088	    -48.38557926	     20.68889697	     -5.28265059	     -2.41064849	     -3.46792986	     -2.23817341	     10.89812046	    -57.19110852	    -16.26106823	      0.86071935	      9.78388351
      2.54000000	      4.30082663	     -3.12380954	     -3.61747462	      0.93582118	      1.02244792	      1.57294886	    -22.28213912	      4.43485412	     -3.91931809	     -4.77070926	     18.58195172	     21.52694114	    -49.00139928	     20.66632506	     -4.81294554	     -1.50647047	     -3.91365744	     -2.76557001	      9.80081692	    -56.81663124	    -16.11402556	      0.60285425	      9.70878090
      2.55000000	      4.27179411	     -2.83142037	     -3.68983877	      0.93699269	      1.02006783	      1.57244687	    -22.75872718	      3.98319080	     -2.86774205	     -5.91427888	     18.94150719	     20.28179472	    -49.45912974	     20.67790808	     -4.22590586	     -0.31302953	     -4.70357349	     -3.44088110	      8.11029876	    -56.46613189	    -15.87244532	      0.24237611	      9.63880602
      2.56000000	      4.29951941	     -2.46650675	     -3.73469220	      0.93833448	      1.01820705	      1.57180699	    -23.17616876	      3.46968616	     -1.76299001	     -7.23206757	     19.06243623	     18.90078130	    -50.08947995	     20.57003286	     -3.53282646	      1.11877531	     -5.73780291	     -4.17701291	      6.24413899	    -56.01452061	    -15.67786850	     -0.18484075	      9.55737863
      2.57000000	      4.40149642	     -2.04435405	     -3.79220198	      0.93986018	      1.01694289	      1.57107708	    -23.49437942	      2.88528895	     -0.73942871	     -8.80434400	     19.21128315	     17.41952296	    -53.69127933	     20.35168558	     -2.77613350	      2.39681941	     -7.02181954	     -4.98324408	      4.62168798	    -53.88368876	    -15.55265057	     -0.67199337	      9.51299274
      2.58000000	      4.49374252	     -1.60934566	     -3.80230876	      0.94148039	      1.01617090	      1.57022460	    -23.59264979	      2.31962549	      0.18001926	    -10.68998818	     18.66627290	     16.17544502	    -53.96544996	     20.14069490	     -1.98686016	      3.57955312	     -8.53319854	     -5.43735266	      3.18794482	    -53.55681281	    -15.41973839	     -1.15329584	      9.43764325
      2.59000000	      4.64864688	     -1.17498462	     -3.82172377	      0.94319991	      1.01599612	      1.56929774	    -23.48331222	      1.73386783	      0.84638362	    -12.96178363	     18.00200961	     15.10838681	    -56.52605136	     19.81860822	     -1.20799059	      4.43832201	    -10.15851616	     -5.74389573	      2.19336334	    -51.53887138	    -15.36022290	     -1.62926202	      9.40771768
      2.60000000	      4.83296028	     -0.76964383	     -3.81060670	      0.94492411	      1.01635973	      1.56831761	    -23.13632096	      1.20278738	      1.41041342	    -15.60587761	     16.73212047	     14.22983717	    -56.76718903	     19.41480572	     -0.47941710	      4.99002887	    -11.82571048	     -5.57839513	      1.64994998	    -51.29191841	    -15.35132530	     -2.06273890	      9.37102022
      2.61000000	      5.02283543	     -0.41312225	     -3.76832392	      0.94655924	      1.01719877	      1.56725154	    -22.45668723	      0.71398931	      1.68886107	    -18.69895209	     15.13414266	     13.61641772	    -57.21752246	     18.91216587	      0.18222338	      5.34159145	    -13.40855484	     -5.11515761	      1.42767742	    -50.84954543	    -15.37727043	     -2.42424250	      9.32628696
      2.62000000	      5.25007955	     -0.14660846	     -3.67557575	      0.94803510	      1.01851196	      1.56612344	    -21.50495646	      0.31137784	      1.72731733	    -22.14867660	     13.10754295	     13.21140925	    -57.44963332	     18.25805936	      0.72750189	      5.49473104	    -14.83935954	     -4.34822229	      1.44246127	    -50.63746463	    -15.48487318	     -2.66729311	      9.26307132
      2.63000000	      5.40167710	      0.07707527	     -3.54093945	      0.94924537	      1.02012251	      1.56493054	    -20.15175291	     -0.04326395	      1.62520646	    -25.94266435	     10.89534319	     12.80617768	    -57.58236981	     17.53138384	      1.19903643	      5.56749208	    -15.99157100	     -3.41447589	      1.66313652	    -50.38807310	    -15.54925205	     -2.83732834	      9.15084874
      2.64000000	      5.49408058	      0.24676390	     -3.38117068	      0.95014783	      1.02199300	      1.56375136	    -18.47054660	     -0.33532149	      1.47903230	    -29.96670452	      8.36612725	     12.54541443	    -54.97557968	     16.71985516	      1.55129701	      5.41682488	    -16.85528759	     -2.46691712	      2.33759288	    -47.82064582	    -15.59063231	     -2.93591375	      8.99534448
      2.65000000	      5.52046201	      0.34364513	     -3.15938779	      0.95068673	      1.02409893	      1.56251786	    -16.49138108	     -0.56268689	      1.19743977	    -34.08842632	      6.01685819	     12.21500716	    -54.11679849	     15.82266952	      1.80041392	      5.24755246	    -17.38943550	     -1.35689209	      3.06324551	    -47.50836081	    -15.60732758	     -2.92485685	      8.77568495
      2.66000000	      5.45857414	      0.39873441	     -2.80744657	      0.95086338	      1.02635426	      1.56119045	    -14.27165807	     -0.71460040	      0.78671340	    -38.20275645	      3.64343889	     11.92633461	    -50.02430845	     14.85689195	      2.01889780	      5.29848187	    -17.57096320	     -0.31767449	      3.65584209	    -46.89835783	    -15.57142154	     -2.82926511	      8.37072010
      2.67000000	      5.32482877	      0.38214803	     -2.43266771	      0.95068170	      1.02878673	      1.55989446	    -11.85624861	     -0.79456365	      0.39053382	    -42.18666075	      1.72862139	     11.51947994	    -47.32599894	     13.82980639	      2.12774394	      5.33904370	    -17.44992075	      0.65762706	      4.24604602	    -46.58540343	    -15.49339423	     -2.64132581	      7.93705023
      2.68000000	      5.13509911	      0.29273411	     -2.02008599	      0.95017289	      1.03138321	      1.55862973	     -9.31056154	     -0.80182226	     -0.02388515	    -45.93620556	      0.24359672	     11.10388997	    -45.24821659	     12.76015714	      2.12388157	      5.33772760	    -17.08534493	      1.52660435	      4.90511257	    -46.45715491	    -15.38651989	     -2.36089538	      7.45244258
      2.69000000	      4.91190758	      0.14871677	     -1.45749527	      0.94939220	      1.03413288	      1.55729577	     -6.72643350	     -0.73882442	     -0.58100841	    -49.35739754	     -0.72808181	     10.67562606	    -42.81243118	     11.61370649	      2.08790936	      5.68386482	    -16.45503884	      2.22828628	      5.30842642	    -46.44965045	    -15.26963006	     -1.98954517	      6.76514164
      2.70000000	      4.67623818	     -0.09291968	     -0.82283499	      0.94836318	      1.03703886	      1.55600242	     -4.13450862	     -0.57616967	     -1.19029058	    -52.37003914	     -1.09705115	     10.11975942	    -42.61862464	     10.43696778	      1.92089246	      6.07744365	    -15.69666627	      2.85639378	      5.76994943	    -46.44411435	    -15.15925571	     -1.49827465	      6.00763330
      2.71000000	      4.39609461	     -0.39593298	     -0.13444523	      0.94714140	      1.04001464	      1.55478319	     -1.52212034	     -0.35951339	     -1.84050267	    -54.93997764	     -1.14606134	      9.66073449	    -42.19902943	      9.26886030	      1.64982006	      6.47810511	    -14.80556728	      3.36251647	      6.30313140	    -46.50394343	    -15.00471736	     -0.93816420	      5.17048136
      2.72000000	      4.16308283	     -0.77218065	      0.66108089	      0.94575788	      1.04310143	      1.55356337	      0.96213298	     -0.09705332	     -2.62333006	    -56.99157930	     -1.11735219	      9.42061183	    -39.74131606	      8.05192416	      1.28042320	      6.98459862	    -13.85763134	      3.77340828	      6.84321497	    -47.32504409	    -14.90859825	     -0.28252301	      4.22455886
      2.73000000	      3.90351699	     -1.20268102	      1.49754176	      0.94421484	      1.04614574	      1.55240027	      3.42919245	      0.19444830	     -3.44353431	    -58.55071854	     -0.66935416	      9.05042351	    -39.63726882	      6.86820477	      0.82695332	      7.56825243	    -12.86556613	      4.10659308	      7.31365605	    -47.41669115	    -14.78009851	      0.43562391	      3.23846383
      2.74000000	      3.64903734	     -1.68676783	      2.38266942	      0.94254895	      1.04910642	      1.55128608	      5.81359491	      0.50341077	     -4.32465454	    -59.59165907	     -0.09385882	      8.73264309	    -39.53281933	      5.70763066	      0.28092117	      8.16539911	    -11.86129631	      4.33766568	      7.80570403	    -47.54013856	    -14.64787898	      1.21427713	      2.21892953
      2.75000000	      3.36571683	     -2.19953208	      3.27842078	      0.94077946	      1.05186576	      1.55024315	      8.14643370	      0.80924488	     -5.20540712	    -60.12331218	      0.49653812	      8.42731044	    -39.45460334	      4.60915154	     -0.32902062	      8.75967707	    -10.85892485	      4.55183319	      8.28348706	    -47.73000189	    -14.47025945	      2.01773707	      1.18155922
